<svg width="16" height="16" viewBox="0 0 16 16" fill="none" xmlns="http://www.w3.org/2000/svg">
<path d="M2 14C1.82319 14 1.65362 13.9298 1.5286 13.8047C1.40357 13.6797 1.33334 13.5101 1.33334 13.3333V2.66667C1.33334 2.48986 1.40357 2.32029 1.5286 2.19526C1.65362 2.07024 1.82319 2 2 2H6.94267L8.276 3.33333H13.3333C13.5101 3.33333 13.6797 3.40357 13.8047 3.5286C13.9298 3.65362 14 3.82319 14 4V6H12.6667V4.66667H7.724L6.39067 3.33333H2.66667V11.332L3.66667 7.33333H15L13.46 13.4953C13.4239 13.6395 13.3406 13.7675 13.2235 13.8589C13.1063 13.9503 12.962 14 12.8133 14H2ZM13.292 8.66667H4.708L3.708 12.6667H12.292L13.292 8.66667Z" fill="white"/>
</svg>
