<svg width="24" height="25" viewBox="0 0 24 25" fill="none" xmlns="http://www.w3.org/2000/svg">
<path d="M12.001 5.02898C14.35 2.91998 17.98 2.98998 20.243 5.25698C22.505 7.52498 22.583 11.137 20.479 13.493L11.999 21.985L3.521 13.493C1.417 11.137 1.496 7.51898 3.757 5.25698C6.022 2.99298 9.645 2.91698 12.001 5.02898ZM18.827 6.66998C17.327 5.16798 14.907 5.10698 13.337 6.51698L12.002 7.71498L10.666 6.51798C9.091 5.10598 6.676 5.16798 5.172 6.67198C3.682 8.16198 3.607 10.547 4.98 12.123L12 19.154L19.02 12.124C20.394 10.547 20.319 8.16498 18.827 6.66998Z" fill="#FF7F7F"/>
</svg>
