<svg width="40" height="40" viewBox="0 0 40 40" fill="none" xmlns="http://www.w3.org/2000/svg">
<circle cx="20" cy="20" r="20" fill="#51CF66"/>
<path d="M7 18.4373H8.99717C9.01736 18.4373 9.03708 18.4434 9.05373 18.4548L9.98856 19.096C10.0212 19.1184 10.064 19.1194 10.0977 19.0986L11.6641 18.1317C11.704 18.107 11.7557 18.1134 11.7883 18.1471L13.3192 19.7221C13.3686 19.7729 13.4538 19.7576 13.4824 19.6928L14.9936 16.2724C15.0322 16.185 15.1597 16.1964 15.1822 16.2892L16.6893 22.4911C16.7149 22.5965 16.8665 22.5915 16.885 22.4846L18.3665 13.9496C18.3864 13.8348 18.5532 13.8411 18.5645 13.9571L19.7289 25.9365C19.7408 26.0586 19.9202 26.058 19.9289 25.9357C20.4063 19.1803 21.2805 7.74242 21.5352 8.00442C21.7908 8.26733 22.6702 22.423 23.1465 30.6314C23.1537 30.7552 23.3354 30.7543 23.3463 30.6308L24.8316 13.8226C24.8422 13.703 25.016 13.7002 25.0305 13.8194L26.2034 23.473C26.2167 23.5828 26.3721 23.5929 26.3995 23.4857L27.9201 17.5412C27.9379 17.4716 28.0212 17.4429 28.0781 17.4868L29.2829 18.4165C29.3004 18.43 29.3218 18.4373 29.344 18.4373H31" stroke="white" stroke-linecap="round" stroke-linejoin="round"/>
</svg>
