<svg width="16" height="16" viewBox="0 0 16 16" fill="none" xmlns="http://www.w3.org/2000/svg">
<path d="M10.6666 8.44463L3.85131 12.988C3.80112 13.0214 3.7428 13.0405 3.68257 13.0434C3.62235 13.0463 3.56247 13.0328 3.50931 13.0043C3.45616 12.9759 3.41172 12.9335 3.38072 12.8818C3.34973 12.8301 3.33334 12.7709 3.33331 12.7106V3.28929C3.33334 3.229 3.34973 3.16984 3.38072 3.11812C3.41172 3.0664 3.45616 3.02406 3.50931 2.9956C3.56247 2.96714 3.62235 2.95363 3.68257 2.95651C3.7428 2.95939 3.80112 2.97856 3.85131 3.01196L10.6666 7.55529V3.33329C10.6666 3.15648 10.7369 2.98691 10.8619 2.86189C10.9869 2.73686 11.1565 2.66663 11.3333 2.66663C11.5101 2.66663 11.6797 2.73686 11.8047 2.86189C11.9297 2.98691 12 3.15648 12 3.33329V12.6666C12 12.8434 11.9297 13.013 11.8047 13.138C11.6797 13.2631 11.5101 13.3333 11.3333 13.3333C11.1565 13.3333 10.9869 13.2631 10.8619 13.138C10.7369 13.013 10.6666 12.8434 10.6666 12.6666V8.44463Z" fill="#D9D9D9"/>
</svg>
