<svg width="16" height="16" viewBox="0 0 16 16" fill="none" xmlns="http://www.w3.org/2000/svg">
<path d="M5.33333 7.55529L12.1487 3.01196C12.1989 2.97856 12.2572 2.95939 12.3174 2.95651C12.3776 2.95363 12.4375 2.96714 12.4907 2.9956C12.5438 3.02406 12.5883 3.0664 12.6193 3.11812C12.6503 3.16984 12.6666 3.229 12.6667 3.28929V12.7106C12.6666 12.7709 12.6503 12.8301 12.6193 12.8818C12.5883 12.9335 12.5438 12.9759 12.4907 13.0043C12.4375 13.0328 12.3776 13.0463 12.3174 13.0434C12.2572 13.0405 12.1989 13.0214 12.1487 12.988L5.33333 8.44463V12.6666C5.33333 12.8434 5.2631 13.013 5.13807 13.138C5.01305 13.2631 4.84348 13.3333 4.66667 13.3333C4.48986 13.3333 4.32029 13.2631 4.19526 13.138C4.07024 13.013 4 12.8434 4 12.6666V3.33329C4 3.15648 4.07024 2.98691 4.19526 2.86189C4.32029 2.73686 4.48986 2.66663 4.66667 2.66663C4.84348 2.66663 5.01305 2.73686 5.13807 2.86189C5.2631 2.98691 5.33333 3.15648 5.33333 3.33329V7.55529Z" fill="#D9D9D9"/>
</svg>
