<svg width="16" height="16" viewBox="0 0 16 16" fill="none" xmlns="http://www.w3.org/2000/svg">
<path d="M5.33331 13.3333V14.6213C5.33342 14.6847 5.31544 14.7468 5.28149 14.8004C5.24754 14.8539 5.19903 14.8967 5.14165 14.9236C5.08426 14.9506 5.02038 14.9606 4.95751 14.9525C4.89463 14.9444 4.83536 14.9186 4.78665 14.878L2.03998 12.5893C1.9873 12.5454 1.94945 12.4863 1.93161 12.4201C1.91376 12.3538 1.91678 12.2837 1.94026 12.2193C1.96373 12.1548 2.00652 12.0992 2.06279 12.0599C2.11905 12.0207 2.18605 11.9998 2.25465 12H12C12.3536 12 12.6927 11.8595 12.9428 11.6095C13.1928 11.3594 13.3333 11.0203 13.3333 10.6667V5.33334H14.6666V10.6667C14.6666 11.3739 14.3857 12.0522 13.8856 12.5523C13.3855 13.0524 12.7072 13.3333 12 13.3333H5.33331ZM10.6666 2.66668V1.37868C10.6665 1.31528 10.6845 1.25317 10.7185 1.19963C10.7524 1.14609 10.8009 1.10334 10.8583 1.0764C10.9157 1.04946 10.9796 1.03944 11.0425 1.04752C11.1053 1.0556 11.1646 1.08144 11.2133 1.12201L13.96 3.41068C14.0126 3.45457 14.0504 3.51362 14.0683 3.57979C14.0862 3.64596 14.0832 3.71603 14.0598 3.78045C14.0364 3.84487 13.9937 3.90051 13.9376 3.9398C13.8814 3.97909 13.8145 4.00011 13.746 4.00001H3.99998C3.64636 4.00001 3.30722 4.14048 3.05717 4.39053C2.80712 4.64058 2.66665 4.97972 2.66665 5.33334V10.6667H1.33331V5.33334C1.33331 4.6261 1.61426 3.94782 2.11436 3.44772C2.61446 2.94763 3.29274 2.66668 3.99998 2.66668H10.6666Z" fill="#D9D9D9"/>
</svg>
