<svg width="16" height="17" viewBox="0 0 16 17" fill="none" xmlns="http://www.w3.org/2000/svg">
<path d="M1.33337 12.5H6.00004V13.8333H1.33337V12.5ZM1.33337 7.83329H7.33337V9.16663H1.33337V7.83329ZM1.33337 3.16663H14.6667V4.49996H1.33337V3.16663ZM13.7827 9.18329L14.5534 8.92263L15.22 10.0773L14.6094 10.614C14.6862 10.9784 14.6862 11.3549 14.6094 11.7193L15.22 12.256L14.5534 13.4106L13.7827 13.15C13.5094 13.3966 13.184 13.5866 12.826 13.7033L12.6667 14.5H11.3334L11.1734 13.7026C10.8195 13.587 10.4939 13.3985 10.2174 13.1493L9.44671 13.4106L8.78004 12.256L9.39071 11.7193C9.31384 11.3549 9.31384 10.9784 9.39071 10.614L8.78004 10.0773L9.44671 8.92263L10.2174 9.18329C10.4907 8.93663 10.816 8.74663 11.174 8.62996L11.3334 7.83329H12.6667L12.8267 8.63063C13.184 8.74663 13.5094 8.93729 13.7827 9.18396V9.18329ZM12 11.8333C12.1769 11.8333 12.3464 11.7631 12.4714 11.638C12.5965 11.513 12.6667 11.3434 12.6667 11.1666C12.6667 10.9898 12.5965 10.8202 12.4714 10.6952C12.3464 10.5702 12.1769 10.5 12 10.5C11.8232 10.5 11.6537 10.5702 11.5286 10.6952C11.4036 10.8202 11.3334 10.9898 11.3334 11.1666C11.3334 11.3434 11.4036 11.513 11.5286 11.638C11.6537 11.7631 11.8232 11.8333 12 11.8333Z" fill="#D9D9D9"/>
</svg>
