<svg width="16" height="16" viewBox="0 0 16 16" fill="none" xmlns="http://www.w3.org/2000/svg">
<path d="M12 11.922V10.6667L15.3333 12.6667L12 14.6667V13.2734C10.9809 13.1274 10.0166 12.7218 9.19965 12.0954C8.38272 11.469 7.7407 10.643 7.33531 9.69671L7.33331 9.69337L7.33131 9.69737C6.8687 10.7765 6.09962 11.6963 5.11937 12.3426C4.13913 12.9889 2.99079 13.3334 1.81665 13.3334H1.33331V12H1.81665C2.72997 12 3.6232 11.732 4.38566 11.2292C5.14811 10.7264 5.74626 10.0109 6.10598 9.17137L6.60798 8.00004L6.10598 6.82871C5.74626 5.98921 5.14811 5.27372 4.38566 4.77091C3.6232 4.26809 2.72997 4.00007 1.81665 4.00004H1.33331V2.66671H1.81665C2.99086 2.66676 4.13925 3.01136 5.11951 3.65779C6.09977 4.30423 6.8688 5.22408 7.33131 6.30337L7.33331 6.30671L7.33531 6.30271C7.74079 5.35658 8.38285 4.53067 9.19978 3.9044C10.0167 3.27814 10.981 2.87257 12 2.72671V1.33337L15.3333 3.33337L12 5.33337V4.07804C11.2446 4.218 10.5354 4.5423 9.93543 5.02214C9.33545 5.50199 8.86322 6.12254 8.56065 6.82871L8.05865 8.00004L8.56065 9.17137C8.86322 9.87755 9.33545 10.4981 9.93543 10.9779C10.5354 11.4578 11.2446 11.7821 12 11.922Z" fill="#8ce99a"/>
</svg>
