<svg width="16" height="17" viewBox="0 0 16 17" fill="none" xmlns="http://www.w3.org/2000/svg">
<path d="M6.66663 5.31331L4.40196 7.16664H1.99996V9.83331H4.40196L6.66663 11.6866V5.31331ZM3.92596 11.1666H1.33329C1.15648 11.1666 0.986912 11.0964 0.861888 10.9714C0.736864 10.8464 0.666626 10.6768 0.666626 10.5V6.49997C0.666626 6.32316 0.736864 6.15359 0.861888 6.02857C0.986912 5.90355 1.15648 5.83331 1.33329 5.83331H3.92596L7.45529 2.94531C7.50413 2.90527 7.56333 2.87993 7.626 2.87224C7.68868 2.86454 7.75225 2.87481 7.80932 2.90184C7.86639 2.92887 7.91461 2.97156 7.94836 3.02493C7.98211 3.0783 8 3.14016 7.99996 3.20331V13.7966C8 13.8598 7.98211 13.9216 7.94836 13.975C7.91461 14.0284 7.86639 14.0711 7.80932 14.0981C7.75225 14.1251 7.68868 14.1354 7.626 14.1277C7.56333 14.12 7.50413 14.0947 7.45529 14.0546L3.92663 11.1666H3.92596ZM12.9373 13.9226L11.9933 12.9786C12.6253 12.4163 13.1309 11.7264 13.4768 10.9544C13.8227 10.1824 14.001 9.34591 14 8.49997C14.0008 7.6107 13.8035 6.73241 13.4225 5.92889C13.0415 5.12537 12.4863 4.4168 11.7973 3.85464L12.744 2.90797C13.5563 3.59567 14.2088 4.4523 14.656 5.4181C15.1032 6.38391 15.3343 7.43565 15.3333 8.49997C15.3333 10.6486 14.4093 12.5813 12.9373 13.9226ZM10.5753 11.5606L9.62729 10.6126C9.95094 10.3638 10.213 10.0438 10.3932 9.67746C10.5735 9.31112 10.667 8.90824 10.6666 8.49997C10.6666 7.54664 10.1666 6.70997 9.41329 6.23864L10.3726 5.27931C10.8776 5.65077 11.288 6.13587 11.5707 6.69538C11.8535 7.2549 12.0005 7.8731 12 8.49997C12 9.72797 11.4466 10.8266 10.5753 11.5606Z" fill="#D9D9D9"/>
</svg>
